<?xml version="1.0" encoding="UTF-8"?>
<!DOCTYPE svg PUBLIC "-//W3C//DTD SVG 1.1//EN" "http://www.w3.org/Graphics/SVG/1.1/DTD/svg11.dtd">
<svg xmlns="http://www.w3.org/2000/svg" version="1.1" width="48px" height="48px" style="shape-rendering:geometricPrecision; text-rendering:geometricPrecision; image-rendering:optimizeQuality; fill-rule:evenodd; clip-rule:evenodd" xmlns:xlink="http://www.w3.org/1999/xlink">
<g><path style="opacity:0.937" fill="#fe9905" d="M 25.5,12.5 C 24.9383,16.0684 23.605,16.4017 21.5,13.5C 19.9232,9.3779 16.9232,7.8779 12.5,9C 8.58032,12.5425 8.58032,16.0425 12.5,19.5C 11.205,20.4884 9.87165,21.4884 8.5,22.5C 8.01273,19.5066 6.67939,16.8399 4.5,14.5C 6.98644,12.422 7.98644,9.75529 7.5,6.5C 10.7553,6.98644 13.422,5.98644 15.5,3.5C 17.578,5.98644 20.2447,6.98644 23.5,6.5C 23.0535,9.01011 23.7202,11.0101 25.5,12.5 Z"/></g>
<g><path style="opacity:1" fill="#fee73a" d="M 21.5,13.5 C 20.1266,13.3433 18.7932,13.51 17.5,14C 15.7455,15.9364 14.0789,17.7698 12.5,19.5C 8.58032,16.0425 8.58032,12.5425 12.5,9C 16.9232,7.8779 19.9232,9.3779 21.5,13.5 Z"/></g>
<g><path style="opacity:0.978" fill="#bbddfa" d="M 8.5,22.5 C 9.87165,21.4884 11.205,20.4884 12.5,19.5C 14.0789,17.7698 15.7455,15.9364 17.5,14C 18.7932,13.51 20.1266,13.3433 21.5,13.5C 23.605,16.4017 24.9383,16.0684 25.5,12.5C 32.9465,9.38342 36.9465,11.7168 37.5,19.5C 39.3904,19.2965 40.8904,19.9632 42,21.5C 43.0037,24.9926 42.5037,28.1592 40.5,31C 30.5,31.6667 20.5,31.6667 10.5,31C 8.68631,28.5185 8.01964,25.6852 8.5,22.5 Z"/></g>
<g><path style="opacity:0.931" fill="#2298f2" d="M 13.5,33.5 C 14.8333,33.5 16.1667,33.5 17.5,33.5C 17.5656,40.6177 14.899,42.1177 9.5,38C 10.3574,35.9812 11.6908,34.4812 13.5,33.5 Z"/></g>
<g><path style="opacity:0.931" fill="#2298f2" d="M 34.5,33.5 C 35.8333,33.5 37.1667,33.5 38.5,33.5C 38.5656,40.6177 35.899,42.1177 30.5,38C 31.3574,35.9812 32.6908,34.4812 34.5,33.5 Z"/></g>
<g><path style="opacity:0.931" fill="#2298f2" d="M 23.5,37.5 C 24.8333,37.5 26.1667,37.5 27.5,37.5C 27.5656,44.6177 24.899,46.1177 19.5,42C 20.3574,39.9812 21.6908,38.4812 23.5,37.5 Z"/></g>
</svg>
