<?xml version="1.0" encoding="UTF-8"?>
<!DOCTYPE svg PUBLIC "-//W3C//DTD SVG 1.1//EN" "http://www.w3.org/Graphics/SVG/1.1/DTD/svg11.dtd">
<svg xmlns="http://www.w3.org/2000/svg" version="1.1" width="48px" height="48px" style="shape-rendering:geometricPrecision; text-rendering:geometricPrecision; image-rendering:optimizeQuality; fill-rule:evenodd; clip-rule:evenodd" xmlns:xlink="http://www.w3.org/1999/xlink">
<g><path style="opacity:0.941" fill="#8fa3ad" d="M 20.5,-0.5 C 22.5,-0.5 24.5,-0.5 26.5,-0.5C 27.2341,0.707917 27.5674,2.04125 27.5,3.5C 29.1667,3.5 30.8333,3.5 32.5,3.5C 32.5,4.5 32.5,5.5 32.5,6.5C 32.5858,7.4959 32.2524,8.32924 31.5,9C 26.1667,9.66667 20.8333,9.66667 15.5,9C 14.7476,8.32924 14.4142,7.4959 14.5,6.5C 14.5,5.5 14.5,4.5 14.5,3.5C 16.1667,3.5 17.8333,3.5 19.5,3.5C 19.4326,2.04125 19.7659,0.707917 20.5,-0.5 Z M 22.5,2.5 C 24.337,2.63945 24.6704,3.30612 23.5,4.5C 22.7025,4.04311 22.3691,3.37644 22.5,2.5 Z"/></g>
<g><path style="opacity:0.998" fill="#445963" d="M 14.5,3.5 C 14.5,4.5 14.5,5.5 14.5,6.5C 13.1667,6.5 11.8333,6.5 10.5,6.5C 10.5,17.8333 10.5,29.1667 10.5,40.5C 19.1667,40.5 27.8333,40.5 36.5,40.5C 36.5,29.1667 36.5,17.8333 36.5,6.5C 35.1667,6.5 33.8333,6.5 32.5,6.5C 32.5,5.5 32.5,4.5 32.5,3.5C 34.7925,3.24358 36.9592,3.57692 39,4.5C 39.6667,17.1667 39.6667,29.8333 39,42.5C 28.6667,43.8333 18.3333,43.8333 8,42.5C 7.33333,29.8333 7.33333,17.1667 8,4.5C 10.0408,3.57692 12.2075,3.24358 14.5,3.5 Z"/></g>
<g><path style="opacity:1" fill="#fcfdfd" d="M 14.5,6.5 C 14.4142,7.4959 14.7476,8.32924 15.5,9C 20.8333,9.66667 26.1667,9.66667 31.5,9C 32.2524,8.32924 32.5858,7.4959 32.5,6.5C 33.8333,6.5 35.1667,6.5 36.5,6.5C 36.5,17.8333 36.5,29.1667 36.5,40.5C 27.8333,40.5 19.1667,40.5 10.5,40.5C 10.5,29.1667 10.5,17.8333 10.5,6.5C 11.8333,6.5 13.1667,6.5 14.5,6.5 Z"/></g>
<g><path style="opacity:1" fill="#ffad39" d="M 17.5,14.5 C 21.1612,14.3501 22.1612,15.8501 20.5,19C 16.7071,19.4866 15.7071,17.9866 17.5,14.5 Z"/></g>
<g><path style="opacity:1" fill="#396d25" d="M 16.5,20.5 C 19.5959,19.9066 21.9292,20.9066 23.5,23.5C 20.5,24.8333 17.5,24.8333 14.5,23.5C 15.1925,22.4822 15.8592,21.4822 16.5,20.5 Z"/></g>
<g><path style="opacity:1" fill="#ced8db" d="M 14.5,28.5 C 20.5368,28.1707 26.5368,28.5041 32.5,29.5C 29.5,29.8333 26.5,30.1667 23.5,30.5C 20.0866,30.483 17.0866,29.8164 14.5,28.5 Z"/></g>
<g><path style="opacity:1" fill="#ced8db" d="M 14.5,33.5 C 20.5368,33.1707 26.5368,33.5041 32.5,34.5C 29.5,34.8333 26.5,35.1667 23.5,35.5C 20.0866,35.483 17.0866,34.8164 14.5,33.5 Z"/></g>
</svg>
